<mxfile host="Electron" agent="Mozilla/5.0 (X11; Linux x86_64) AppleWebKit/537.36 (KHTML, like Gecko) draw.io/24.7.17 Chrome/128.0.6613.36 Electron/32.0.1 Safari/537.36" version="24.7.17">
  <diagram id="6a731a19-8d31-9384-78a2-239565b7b9f0" name="Page-1">
    <mxGraphModel dx="3969" dy="2704" grid="1" gridSize="10" guides="1" tooltips="1" connect="1" arrows="1" fold="1" page="1" pageScale="1" pageWidth="1169" pageHeight="827" background="none" math="0" shadow="0">
      <root>
        <mxCell id="0" />
        <mxCell id="1" parent="0" />
        <mxCell id="1NOU-ukhlj_V_QHXFucC-1570" value="" style="edgeStyle=none;shape=connector;rounded=1;orthogonalLoop=1;jettySize=auto;html=1;strokeColor=#1699D3;strokeWidth=6;align=center;verticalAlign=middle;fontFamily=Helvetica;fontSize=11;fontColor=default;labelBackgroundColor=default;endArrow=none;" edge="1" parent="1" source="1350" target="1NOU-ukhlj_V_QHXFucC-1569">
          <mxGeometry relative="1" as="geometry" />
        </mxCell>
        <mxCell id="1NOU-ukhlj_V_QHXFucC-1572" value="" style="edgeStyle=none;shape=connector;rounded=1;orthogonalLoop=1;jettySize=auto;html=1;strokeColor=#1699D3;strokeWidth=6;align=center;verticalAlign=middle;fontFamily=Helvetica;fontSize=11;fontColor=default;labelBackgroundColor=default;endArrow=none;" edge="1" parent="1" source="1350" target="1NOU-ukhlj_V_QHXFucC-1571">
          <mxGeometry relative="1" as="geometry" />
        </mxCell>
        <mxCell id="1350" value="ServiÃ§os" style="ellipse;whiteSpace=wrap;html=1;shadow=0;fontFamily=Helvetica;fontSize=20;fontColor=#FFFFFF;align=center;strokeWidth=3;fillColor=#1699D3;strokeColor=none;" parent="1" vertex="1">
          <mxGeometry x="523.5" y="271.5" width="196.5" height="178.5" as="geometry" />
        </mxCell>
        <mxCell id="1NOU-ukhlj_V_QHXFucC-1587" style="edgeStyle=none;shape=connector;rounded=1;orthogonalLoop=1;jettySize=auto;html=1;exitX=0;exitY=0.5;exitDx=0;exitDy=0;strokeColor=#f08705;strokeWidth=6;align=center;verticalAlign=middle;fontFamily=Helvetica;fontSize=11;fontColor=default;labelBackgroundColor=default;endArrow=none;" edge="1" parent="1" source="1351" target="1NOU-ukhlj_V_QHXFucC-1585">
          <mxGeometry relative="1" as="geometry" />
        </mxCell>
        <mxCell id="1NOU-ukhlj_V_QHXFucC-1589" value="" style="edgeStyle=none;shape=connector;rounded=1;orthogonalLoop=1;jettySize=auto;html=1;strokeColor=#f08705;strokeWidth=6;align=center;verticalAlign=middle;fontFamily=Helvetica;fontSize=11;fontColor=default;labelBackgroundColor=default;endArrow=none;" edge="1" parent="1" source="1351" target="1NOU-ukhlj_V_QHXFucC-1588">
          <mxGeometry relative="1" as="geometry" />
        </mxCell>
        <mxCell id="1NOU-ukhlj_V_QHXFucC-1591" value="" style="edgeStyle=none;shape=connector;rounded=1;orthogonalLoop=1;jettySize=auto;html=1;strokeColor=#f08705;strokeWidth=6;align=center;verticalAlign=middle;fontFamily=Helvetica;fontSize=11;fontColor=default;labelBackgroundColor=default;endArrow=none;" edge="1" parent="1" source="1351" target="1NOU-ukhlj_V_QHXFucC-1590">
          <mxGeometry relative="1" as="geometry" />
        </mxCell>
        <mxCell id="1NOU-ukhlj_V_QHXFucC-1600" value="" style="edgeStyle=none;shape=connector;rounded=1;orthogonalLoop=1;jettySize=auto;html=1;strokeColor=#f08705;strokeWidth=6;align=center;verticalAlign=middle;fontFamily=Helvetica;fontSize=11;fontColor=default;labelBackgroundColor=default;endArrow=none;" edge="1" parent="1" source="1351" target="1NOU-ukhlj_V_QHXFucC-1599">
          <mxGeometry relative="1" as="geometry" />
        </mxCell>
        <mxCell id="1351" value="Agenda" style="ellipse;whiteSpace=wrap;html=1;shadow=0;fontFamily=Helvetica;fontSize=20;fontColor=#FFFFFF;align=center;strokeWidth=3;fillColor=#F08705;strokeColor=none;gradientColor=none;" parent="1" vertex="1">
          <mxGeometry x="1080" y="241.5" width="210" height="178.5" as="geometry" />
        </mxCell>
        <mxCell id="1NOU-ukhlj_V_QHXFucC-1611" value="" style="edgeStyle=none;shape=connector;rounded=1;orthogonalLoop=1;jettySize=auto;html=1;strokeColor=#E85642;strokeWidth=6;align=center;verticalAlign=middle;fontFamily=Helvetica;fontSize=11;fontColor=default;labelBackgroundColor=default;endArrow=none;" edge="1" parent="1" source="1352" target="1NOU-ukhlj_V_QHXFucC-1610">
          <mxGeometry relative="1" as="geometry" />
        </mxCell>
        <mxCell id="1NOU-ukhlj_V_QHXFucC-1616" style="edgeStyle=none;shape=connector;rounded=1;orthogonalLoop=1;jettySize=auto;html=1;strokeColor=#E85642;strokeWidth=6;align=center;verticalAlign=middle;fontFamily=Helvetica;fontSize=11;fontColor=default;labelBackgroundColor=default;endArrow=none;" edge="1" parent="1" source="1352" target="1NOU-ukhlj_V_QHXFucC-1602">
          <mxGeometry relative="1" as="geometry" />
        </mxCell>
        <mxCell id="1352" value="Clientes" style="ellipse;whiteSpace=wrap;html=1;shadow=0;fontFamily=Helvetica;fontSize=20;fontColor=#FFFFFF;align=center;strokeWidth=3;fillColor=#E85642;strokeColor=none;" parent="1" vertex="1">
          <mxGeometry x="1460" y="410" width="201" height="193.5" as="geometry" />
        </mxCell>
        <mxCell id="1353" value="Fish" style="ellipse;whiteSpace=wrap;html=1;shadow=0;fontFamily=Helvetica;fontSize=20;fontColor=#FFFFFF;align=center;strokeWidth=3;fillColor=#1699D3;strokeColor=none;" parent="1" vertex="1">
          <mxGeometry x="1936" y="806.5" width="120" height="120" as="geometry" />
        </mxCell>
        <mxCell id="1354" value="Bacteria" style="ellipse;whiteSpace=wrap;html=1;shadow=0;fontFamily=Helvetica;fontSize=20;fontColor=#FFFFFF;align=center;strokeWidth=3;fillColor=#736ca8;strokeColor=none;" parent="1" vertex="1">
          <mxGeometry x="1711" y="1171.5" width="120" height="120" as="geometry" />
        </mxCell>
        <mxCell id="1355" value="Fungi" style="ellipse;whiteSpace=wrap;html=1;shadow=0;fontFamily=Helvetica;fontSize=20;fontColor=#FFFFFF;align=center;strokeWidth=3;fillColor=#F08705;strokeColor=none;" parent="1" vertex="1">
          <mxGeometry x="1163.5" y="1309" width="120" height="120" as="geometry" />
        </mxCell>
        <mxCell id="1356" value="Flower" style="ellipse;whiteSpace=wrap;html=1;shadow=0;fontFamily=Helvetica;fontSize=20;fontColor=#FFFFFF;align=center;strokeWidth=3;fillColor=#E85642;strokeColor=none;" parent="1" vertex="1">
          <mxGeometry x="558.5" y="1171.5" width="120" height="120" as="geometry" />
        </mxCell>
        <mxCell id="1359" style="endArrow=none;strokeWidth=6;strokeColor=#1699D3;html=1;" parent="1" source="1515" target="1350" edge="1">
          <mxGeometry relative="1" as="geometry" />
        </mxCell>
        <mxCell id="1360" style="endArrow=none;strokeWidth=6;strokeColor=#f08705;html=1;" parent="1" source="1515" target="1351" edge="1">
          <mxGeometry relative="1" as="geometry" />
        </mxCell>
        <mxCell id="1361" style="endArrow=none;strokeWidth=6;strokeColor=#E85642;html=1;" parent="1" source="1515" target="1352" edge="1">
          <mxGeometry relative="1" as="geometry" />
        </mxCell>
        <mxCell id="1362" style="endArrow=none;strokeWidth=6;strokeColor=#1699D3;html=1;" parent="1" source="1515" target="1353" edge="1">
          <mxGeometry relative="1" as="geometry" />
        </mxCell>
        <mxCell id="1363" style="endArrow=none;strokeWidth=6;strokeColor=#736CA8;html=1;" parent="1" source="1515" target="1516" edge="1">
          <mxGeometry relative="1" as="geometry" />
        </mxCell>
        <mxCell id="1364" style="endArrow=none;strokeWidth=6;strokeColor=#736ca8;html=1;" parent="1" source="1515" target="1354" edge="1">
          <mxGeometry relative="1" as="geometry" />
        </mxCell>
        <mxCell id="1365" value="" style="edgeStyle=none;endArrow=none;strokeWidth=6;strokeColor=#F08705;html=1;" parent="1" source="1515" target="1355" edge="1">
          <mxGeometry x="181" y="226.5" width="100" height="100" as="geometry">
            <mxPoint x="181" y="326.5" as="sourcePoint" />
            <mxPoint x="281" y="226.5" as="targetPoint" />
          </mxGeometry>
        </mxCell>
        <mxCell id="1366" value="" style="edgeStyle=none;endArrow=none;strokeWidth=6;strokeColor=#E85642;html=1;" parent="1" source="1515" target="1356" edge="1">
          <mxGeometry x="181" y="226.5" width="100" height="100" as="geometry">
            <mxPoint x="181" y="326.5" as="sourcePoint" />
            <mxPoint x="281" y="226.5" as="targetPoint" />
          </mxGeometry>
        </mxCell>
        <mxCell id="1435" value="Perch" style="rounded=1;fillColor=#64BBE2;strokeColor=none;strokeWidth=3;shadow=0;html=1;fontColor=#FFFFFF;" parent="1" vertex="1">
          <mxGeometry x="1781" y="766.5" width="120" height="40" as="geometry" />
        </mxCell>
        <mxCell id="1436" value="Mackerel" style="rounded=1;fillColor=#64BBE2;strokeColor=none;strokeWidth=3;shadow=0;html=1;fontColor=#FFFFFF;" parent="1" vertex="1">
          <mxGeometry x="1811" y="696.5" width="120" height="40" as="geometry" />
        </mxCell>
        <mxCell id="1437" value="Tuna" style="rounded=1;fillColor=#64BBE2;strokeColor=none;strokeWidth=3;shadow=0;html=1;fontColor=#FFFFFF;" parent="1" vertex="1">
          <mxGeometry x="1936" y="666.5" width="120" height="40" as="geometry" />
        </mxCell>
        <mxCell id="1438" value="Shark" style="rounded=1;fillColor=#64BBE2;strokeColor=none;strokeWidth=3;shadow=0;html=1;fontColor=#FFFFFF;" parent="1" vertex="1">
          <mxGeometry x="2066" y="721.5" width="120" height="40" as="geometry" />
        </mxCell>
        <mxCell id="1440" value="Bass" style="rounded=1;fillColor=#64BBE2;strokeColor=none;strokeWidth=3;shadow=0;html=1;fontColor=#FFFFFF;" parent="1" vertex="1">
          <mxGeometry x="2130" y="791.5" width="120" height="40" as="geometry" />
        </mxCell>
        <mxCell id="1441" value="Eel" style="rounded=1;fillColor=#64BBE2;strokeColor=none;strokeWidth=3;shadow=0;html=1;fontColor=#FFFFFF;" parent="1" vertex="1">
          <mxGeometry x="2130" y="896.5" width="120" height="40" as="geometry" />
        </mxCell>
        <mxCell id="1443" value="Ray" style="rounded=1;fillColor=#64BBE2;strokeColor=none;strokeWidth=3;shadow=0;html=1;fontColor=#FFFFFF;" parent="1" vertex="1">
          <mxGeometry x="2030" y="990" width="120" height="40" as="geometry" />
        </mxCell>
        <mxCell id="1444" value="Trout" style="rounded=1;fillColor=#64BBE2;strokeColor=none;strokeWidth=3;shadow=0;html=1;fontColor=#FFFFFF;" parent="1" vertex="1">
          <mxGeometry x="1880" y="990" width="120" height="40" as="geometry" />
        </mxCell>
        <mxCell id="1445" value="Catfish" style="rounded=1;fillColor=#64BBE2;strokeColor=none;strokeWidth=3;shadow=0;html=1;fontColor=#FFFFFF;" parent="1" vertex="1">
          <mxGeometry x="1756" y="891.5" width="120" height="40" as="geometry" />
        </mxCell>
        <mxCell id="1446" value="" style="edgeStyle=none;endArrow=none;strokeWidth=3;strokeColor=#64BBE2;html=1;" parent="1" source="1353" target="1435" edge="1">
          <mxGeometry x="-24" y="196.5" width="100" height="100" as="geometry">
            <mxPoint x="-24" y="296.5" as="sourcePoint" />
            <mxPoint x="76" y="196.5" as="targetPoint" />
          </mxGeometry>
        </mxCell>
        <mxCell id="1447" value="" style="edgeStyle=none;endArrow=none;strokeWidth=3;strokeColor=#64BBE2;html=1;" parent="1" source="1353" target="1436" edge="1">
          <mxGeometry x="-24" y="196.5" width="100" height="100" as="geometry">
            <mxPoint x="-24" y="296.5" as="sourcePoint" />
            <mxPoint x="76" y="196.5" as="targetPoint" />
          </mxGeometry>
        </mxCell>
        <mxCell id="1448" value="" style="edgeStyle=none;endArrow=none;strokeWidth=3;strokeColor=#64BBE2;html=1;" parent="1" source="1353" target="1437" edge="1">
          <mxGeometry x="-24" y="196.5" width="100" height="100" as="geometry">
            <mxPoint x="-24" y="296.5" as="sourcePoint" />
            <mxPoint x="76" y="196.5" as="targetPoint" />
          </mxGeometry>
        </mxCell>
        <mxCell id="1449" value="" style="edgeStyle=none;endArrow=none;strokeWidth=3;strokeColor=#64BBE2;html=1;" parent="1" source="1353" target="1438" edge="1">
          <mxGeometry x="-24" y="196.5" width="100" height="100" as="geometry">
            <mxPoint x="-24" y="296.5" as="sourcePoint" />
            <mxPoint x="76" y="196.5" as="targetPoint" />
          </mxGeometry>
        </mxCell>
        <mxCell id="1451" value="" style="edgeStyle=none;endArrow=none;strokeWidth=3;strokeColor=#64BBE2;html=1;" parent="1" source="1353" target="1440" edge="1">
          <mxGeometry x="-24" y="196.5" width="100" height="100" as="geometry">
            <mxPoint x="-24" y="296.5" as="sourcePoint" />
            <mxPoint x="76" y="196.5" as="targetPoint" />
          </mxGeometry>
        </mxCell>
        <mxCell id="1453" value="" style="edgeStyle=none;endArrow=none;strokeWidth=3;strokeColor=#64BBE2;html=1;" parent="1" source="1353" target="1441" edge="1">
          <mxGeometry x="-24" y="196.5" width="100" height="100" as="geometry">
            <mxPoint x="-24" y="296.5" as="sourcePoint" />
            <mxPoint x="76" y="196.5" as="targetPoint" />
          </mxGeometry>
        </mxCell>
        <mxCell id="1454" value="" style="edgeStyle=none;endArrow=none;strokeWidth=3;strokeColor=#64BBE2;html=1;" parent="1" source="1353" target="1443" edge="1">
          <mxGeometry x="-24" y="196.5" width="100" height="100" as="geometry">
            <mxPoint x="-24" y="296.5" as="sourcePoint" />
            <mxPoint x="76" y="196.5" as="targetPoint" />
          </mxGeometry>
        </mxCell>
        <mxCell id="1455" value="" style="edgeStyle=none;endArrow=none;strokeWidth=3;strokeColor=#64BBE2;html=1;" parent="1" source="1353" target="1444" edge="1">
          <mxGeometry x="-24" y="196.5" width="100" height="100" as="geometry">
            <mxPoint x="-24" y="296.5" as="sourcePoint" />
            <mxPoint x="76" y="196.5" as="targetPoint" />
          </mxGeometry>
        </mxCell>
        <mxCell id="1456" value="" style="edgeStyle=none;endArrow=none;strokeWidth=3;strokeColor=#64BBE2;html=1;" parent="1" source="1353" target="1445" edge="1">
          <mxGeometry x="-24" y="196.5" width="100" height="100" as="geometry">
            <mxPoint x="-24" y="296.5" as="sourcePoint" />
            <mxPoint x="76" y="196.5" as="targetPoint" />
          </mxGeometry>
        </mxCell>
        <mxCell id="1457" value="Streptococcus" style="rounded=1;fillColor=#a29dc5;strokeColor=none;strokeWidth=3;shadow=0;html=1;fontColor=#FFFFFF;" parent="1" vertex="1">
          <mxGeometry x="1646" y="1087" width="120" height="40" as="geometry" />
        </mxCell>
        <mxCell id="1458" value="Echericia Colli" style="rounded=1;fillColor=#a29dc5;strokeColor=none;strokeWidth=3;shadow=0;html=1;fontColor=#FFFFFF;" parent="1" vertex="1">
          <mxGeometry x="1631" y="1301.5" width="120" height="40" as="geometry" />
        </mxCell>
        <mxCell id="1459" value="Lactobacyllus" style="rounded=1;fillColor=#a29dc5;strokeColor=none;strokeWidth=3;shadow=0;html=1;fontColor=#FFFFFF;" parent="1" vertex="1">
          <mxGeometry x="1801" y="1114" width="120" height="40" as="geometry" />
        </mxCell>
        <mxCell id="1460" value="Helicobacter" style="rounded=1;fillColor=#a29dc5;strokeColor=none;strokeWidth=3;shadow=0;html=1;fontColor=#FFFFFF;" parent="1" vertex="1">
          <mxGeometry x="1901" y="1194" width="120" height="40" as="geometry" />
        </mxCell>
        <mxCell id="1461" value="Bifidobacterium" style="rounded=1;fillColor=#a29dc5;strokeColor=none;strokeWidth=3;shadow=0;html=1;fontColor=#FFFFFF;" parent="1" vertex="1">
          <mxGeometry x="1821" y="1331.5" width="120" height="40" as="geometry" />
        </mxCell>
        <mxCell id="1462" value="Staphyllococcus" style="rounded=1;fillColor=#a29dc5;strokeColor=none;strokeWidth=3;shadow=0;html=1;fontColor=#FFFFFF;" parent="1" vertex="1">
          <mxGeometry x="1551" y="1211.5" width="120" height="40" as="geometry" />
        </mxCell>
        <mxCell id="1463" value="" style="edgeStyle=none;endArrow=none;strokeWidth=3;strokeColor=#A29DC5;html=1;" parent="1" source="1354" target="1460" edge="1">
          <mxGeometry x="251" y="-103.5" width="100" height="100" as="geometry">
            <mxPoint x="251" y="-3.5" as="sourcePoint" />
            <mxPoint x="351" y="-103.5" as="targetPoint" />
          </mxGeometry>
        </mxCell>
        <mxCell id="1464" value="" style="edgeStyle=none;endArrow=none;strokeWidth=3;strokeColor=#A29DC5;html=1;" parent="1" source="1354" target="1461" edge="1">
          <mxGeometry x="251" y="-103.5" width="100" height="100" as="geometry">
            <mxPoint x="251" y="-3.5" as="sourcePoint" />
            <mxPoint x="351" y="-103.5" as="targetPoint" />
          </mxGeometry>
        </mxCell>
        <mxCell id="1465" value="" style="edgeStyle=none;endArrow=none;strokeWidth=3;strokeColor=#A29DC5;html=1;" parent="1" source="1354" target="1458" edge="1">
          <mxGeometry x="251" y="-103.5" width="100" height="100" as="geometry">
            <mxPoint x="251" y="-3.5" as="sourcePoint" />
            <mxPoint x="351" y="-103.5" as="targetPoint" />
          </mxGeometry>
        </mxCell>
        <mxCell id="1466" value="" style="edgeStyle=none;endArrow=none;strokeWidth=3;strokeColor=#A29DC5;html=1;" parent="1" source="1354" target="1462" edge="1">
          <mxGeometry x="251" y="-103.5" width="100" height="100" as="geometry">
            <mxPoint x="251" y="-3.5" as="sourcePoint" />
            <mxPoint x="351" y="-103.5" as="targetPoint" />
          </mxGeometry>
        </mxCell>
        <mxCell id="1467" value="" style="edgeStyle=none;endArrow=none;strokeWidth=3;strokeColor=#A29DC5;html=1;" parent="1" source="1354" target="1457" edge="1">
          <mxGeometry x="251" y="-103.5" width="100" height="100" as="geometry">
            <mxPoint x="251" y="-3.5" as="sourcePoint" />
            <mxPoint x="351" y="-103.5" as="targetPoint" />
          </mxGeometry>
        </mxCell>
        <mxCell id="1468" value="Zygomycota" style="rounded=1;fillColor=#f5af58;strokeColor=none;strokeWidth=3;shadow=0;html=1;fontColor=#FFFFFF;" parent="1" vertex="1">
          <mxGeometry x="1358.5" y="1274" width="120" height="40" as="geometry" />
        </mxCell>
        <mxCell id="1469" value="Script Writing" style="rounded=1;fillColor=#f5af58;strokeColor=none;strokeWidth=3;shadow=0;html=1;fontColor=#FFFFFF;" parent="1" vertex="1">
          <mxGeometry x="1373.5" y="1346.5" width="120" height="40" as="geometry" />
        </mxCell>
        <mxCell id="1470" value="Ascomycota" style="rounded=1;fillColor=#f5af58;strokeColor=none;strokeWidth=3;shadow=0;html=1;fontColor=#FFFFFF;" parent="1" vertex="1">
          <mxGeometry x="1348.5" y="1411.5" width="120" height="40" as="geometry" />
        </mxCell>
        <mxCell id="1471" value="Basidiomycota" style="rounded=1;fillColor=#f5af58;strokeColor=none;strokeWidth=3;shadow=0;html=1;fontColor=#FFFFFF;" parent="1" vertex="1">
          <mxGeometry x="1283.5" y="1471.5" width="120" height="40" as="geometry" />
        </mxCell>
        <mxCell id="1472" value="Mushroom" style="rounded=1;fillColor=#f5af58;strokeColor=none;strokeWidth=3;shadow=0;html=1;fontColor=#FFFFFF;" parent="1" vertex="1">
          <mxGeometry x="1183.5" y="1529" width="120" height="40" as="geometry" />
        </mxCell>
        <mxCell id="1473" value="Lichen" style="rounded=1;fillColor=#f5af58;strokeColor=none;strokeWidth=3;shadow=0;html=1;fontColor=#FFFFFF;" parent="1" vertex="1">
          <mxGeometry x="1083.5" y="1471.5" width="120" height="40" as="geometry" />
        </mxCell>
        <mxCell id="1474" value="Bread Mold" style="rounded=1;fillColor=#f5af58;strokeColor=none;strokeWidth=3;shadow=0;html=1;fontColor=#FFFFFF;" parent="1" vertex="1">
          <mxGeometry x="1003.5" y="1411.5" width="120" height="40" as="geometry" />
        </mxCell>
        <mxCell id="1475" value="Yeast" style="rounded=1;fillColor=#f5af58;strokeColor=none;strokeWidth=3;shadow=0;html=1;fontColor=#FFFFFF;" parent="1" vertex="1">
          <mxGeometry x="963.5" y="1339" width="120" height="40" as="geometry" />
        </mxCell>
        <mxCell id="1476" value="Zygospore" style="rounded=1;fillColor=#f5af58;strokeColor=none;strokeWidth=3;shadow=0;html=1;fontColor=#FFFFFF;" parent="1" vertex="1">
          <mxGeometry x="968.5" y="1274" width="120" height="40" as="geometry" />
        </mxCell>
        <mxCell id="1477" value="Truffle" style="rounded=1;fillColor=#f5af58;strokeColor=none;strokeWidth=3;shadow=0;html=1;fontColor=#FFFFFF;" parent="1" vertex="1">
          <mxGeometry x="1028.5" y="1209" width="120" height="40" as="geometry" />
        </mxCell>
        <mxCell id="1478" value="Chytrid" style="rounded=1;fillColor=#f5af58;strokeColor=none;strokeWidth=3;shadow=0;html=1;fontColor=#FFFFFF;" parent="1" vertex="1">
          <mxGeometry x="1298.5" y="1194" width="120" height="40" as="geometry" />
        </mxCell>
        <mxCell id="1479" value="" style="edgeStyle=none;endArrow=none;strokeWidth=3;strokeColor=#F5AF58;html=1;" parent="1" source="1355" target="1478" edge="1">
          <mxGeometry x="243.5" y="39" width="100" height="100" as="geometry">
            <mxPoint x="243.5" y="139" as="sourcePoint" />
            <mxPoint x="343.5" y="39" as="targetPoint" />
          </mxGeometry>
        </mxCell>
        <mxCell id="1480" value="" style="edgeStyle=none;endArrow=none;strokeWidth=3;strokeColor=#F5AF58;html=1;" parent="1" source="1355" target="1468" edge="1">
          <mxGeometry x="243.5" y="39" width="100" height="100" as="geometry">
            <mxPoint x="243.5" y="139" as="sourcePoint" />
            <mxPoint x="343.5" y="39" as="targetPoint" />
          </mxGeometry>
        </mxCell>
        <mxCell id="1481" value="" style="edgeStyle=none;endArrow=none;strokeWidth=3;strokeColor=#F5AF58;html=1;" parent="1" source="1355" target="1469" edge="1">
          <mxGeometry x="243.5" y="39" width="100" height="100" as="geometry">
            <mxPoint x="243.5" y="139" as="sourcePoint" />
            <mxPoint x="343.5" y="39" as="targetPoint" />
          </mxGeometry>
        </mxCell>
        <mxCell id="1482" value="" style="edgeStyle=none;endArrow=none;strokeWidth=3;strokeColor=#F5AF58;html=1;" parent="1" source="1355" target="1470" edge="1">
          <mxGeometry x="243.5" y="39" width="100" height="100" as="geometry">
            <mxPoint x="243.5" y="139" as="sourcePoint" />
            <mxPoint x="343.5" y="39" as="targetPoint" />
          </mxGeometry>
        </mxCell>
        <mxCell id="1483" value="" style="edgeStyle=none;endArrow=none;strokeWidth=3;strokeColor=#F5AF58;html=1;" parent="1" source="1355" target="1471" edge="1">
          <mxGeometry x="243.5" y="39" width="100" height="100" as="geometry">
            <mxPoint x="243.5" y="139" as="sourcePoint" />
            <mxPoint x="343.5" y="39" as="targetPoint" />
          </mxGeometry>
        </mxCell>
        <mxCell id="1484" value="" style="edgeStyle=none;endArrow=none;strokeWidth=3;strokeColor=#F5AF58;html=1;" parent="1" source="1355" target="1472" edge="1">
          <mxGeometry x="243.5" y="39" width="100" height="100" as="geometry">
            <mxPoint x="243.5" y="139" as="sourcePoint" />
            <mxPoint x="343.5" y="39" as="targetPoint" />
          </mxGeometry>
        </mxCell>
        <mxCell id="1485" value="" style="edgeStyle=none;endArrow=none;strokeWidth=3;strokeColor=#F5AF58;html=1;" parent="1" source="1355" target="1473" edge="1">
          <mxGeometry x="243.5" y="39" width="100" height="100" as="geometry">
            <mxPoint x="243.5" y="139" as="sourcePoint" />
            <mxPoint x="343.5" y="39" as="targetPoint" />
          </mxGeometry>
        </mxCell>
        <mxCell id="1486" value="" style="edgeStyle=none;endArrow=none;strokeWidth=3;strokeColor=#F5AF58;html=1;" parent="1" source="1355" target="1474" edge="1">
          <mxGeometry x="243.5" y="39" width="100" height="100" as="geometry">
            <mxPoint x="243.5" y="139" as="sourcePoint" />
            <mxPoint x="343.5" y="39" as="targetPoint" />
          </mxGeometry>
        </mxCell>
        <mxCell id="1487" value="" style="edgeStyle=none;endArrow=none;strokeWidth=3;strokeColor=#F5AF58;html=1;" parent="1" source="1355" target="1475" edge="1">
          <mxGeometry x="243.5" y="39" width="100" height="100" as="geometry">
            <mxPoint x="243.5" y="139" as="sourcePoint" />
            <mxPoint x="343.5" y="39" as="targetPoint" />
          </mxGeometry>
        </mxCell>
        <mxCell id="1488" value="" style="edgeStyle=none;endArrow=none;strokeWidth=3;strokeColor=#F5AF58;html=1;" parent="1" source="1355" target="1476" edge="1">
          <mxGeometry x="243.5" y="39" width="100" height="100" as="geometry">
            <mxPoint x="243.5" y="139" as="sourcePoint" />
            <mxPoint x="343.5" y="39" as="targetPoint" />
          </mxGeometry>
        </mxCell>
        <mxCell id="1489" value="" style="edgeStyle=none;endArrow=none;strokeWidth=3;strokeColor=#F5AF58;html=1;" parent="1" source="1355" target="1477" edge="1">
          <mxGeometry x="243.5" y="39" width="100" height="100" as="geometry">
            <mxPoint x="243.5" y="139" as="sourcePoint" />
            <mxPoint x="343.5" y="39" as="targetPoint" />
          </mxGeometry>
        </mxCell>
        <mxCell id="1490" value="Philadendron" style="rounded=1;fillColor=#f08e81;strokeColor=none;strokeWidth=3;shadow=0;html=1;fontColor=#FFFFFF;" parent="1" vertex="1">
          <mxGeometry x="623.5" y="1006.5" width="120" height="40" as="geometry" />
        </mxCell>
        <mxCell id="1491" value="Dahlia" style="rounded=1;fillColor=#f08e81;strokeColor=none;strokeWidth=3;shadow=0;html=1;fontColor=#FFFFFF;" parent="1" vertex="1">
          <mxGeometry x="488.5" y="1011.5" width="120" height="40" as="geometry" />
        </mxCell>
        <mxCell id="1492" value="Petunia" style="rounded=1;fillColor=#f08e81;strokeColor=none;strokeWidth=3;shadow=0;html=1;fontColor=#FFFFFF;" parent="1" vertex="1">
          <mxGeometry x="423.5" y="1066.5" width="120" height="40" as="geometry" />
        </mxCell>
        <mxCell id="1493" value="Cactus" style="rounded=1;fillColor=#f08e81;strokeColor=none;strokeWidth=3;shadow=0;html=1;fontColor=#FFFFFF;" parent="1" vertex="1">
          <mxGeometry x="368.5" y="1126.5" width="120" height="40" as="geometry" />
        </mxCell>
        <mxCell id="1494" value="Tulip" style="rounded=1;fillColor=#f08e81;strokeColor=none;strokeWidth=3;shadow=0;html=1;fontColor=#FFFFFF;" parent="1" vertex="1">
          <mxGeometry x="348.5" y="1181.5" width="120" height="40" as="geometry" />
        </mxCell>
        <mxCell id="1495" value="Lilac" style="rounded=1;fillColor=#f08e81;strokeColor=none;strokeWidth=3;shadow=0;html=1;fontColor=#FFFFFF;" parent="1" vertex="1">
          <mxGeometry x="363.5" y="1246.5" width="120" height="40" as="geometry" />
        </mxCell>
        <mxCell id="1496" value="Dandelion" style="rounded=1;fillColor=#f08e81;strokeColor=none;strokeWidth=3;shadow=0;html=1;fontColor=#FFFFFF;" parent="1" vertex="1">
          <mxGeometry x="398.5" y="1309" width="120" height="40" as="geometry" />
        </mxCell>
        <mxCell id="1497" value="Poppy" style="rounded=1;fillColor=#f08e81;strokeColor=none;strokeWidth=3;shadow=0;html=1;fontColor=#FFFFFF;" parent="1" vertex="1">
          <mxGeometry x="468.5" y="1359" width="120" height="40" as="geometry" />
        </mxCell>
        <mxCell id="1498" value="Gerbera" style="rounded=1;fillColor=#f08e81;strokeColor=none;strokeWidth=3;shadow=0;html=1;fontColor=#FFFFFF;" parent="1" vertex="1">
          <mxGeometry x="578.5" y="1414" width="120" height="40" as="geometry" />
        </mxCell>
        <mxCell id="1499" value="Orchid" style="rounded=1;fillColor=#f08e81;strokeColor=none;strokeWidth=3;shadow=0;html=1;fontColor=#FFFFFF;" parent="1" vertex="1">
          <mxGeometry x="703.5" y="1349" width="120" height="40" as="geometry" />
        </mxCell>
        <mxCell id="1500" value="Gladiola" style="rounded=1;fillColor=#f08e81;strokeColor=none;strokeWidth=3;shadow=0;html=1;fontColor=#FFFFFF;" parent="1" vertex="1">
          <mxGeometry x="763.5" y="1281.5" width="120" height="40" as="geometry" />
        </mxCell>
        <mxCell id="1501" value="Rose" style="rounded=1;fillColor=#f08e81;strokeColor=none;strokeWidth=3;shadow=0;html=1;fontColor=#FFFFFF;" parent="1" vertex="1">
          <mxGeometry x="783.5" y="1186" width="120" height="40" as="geometry" />
        </mxCell>
        <mxCell id="1502" value="" style="edgeStyle=none;endArrow=none;strokeWidth=3;strokeColor=#F08E81;html=1;" parent="1" source="1356" target="1501" edge="1">
          <mxGeometry x="188.5" y="51.5" width="100" height="100" as="geometry">
            <mxPoint x="188.5" y="151.5" as="sourcePoint" />
            <mxPoint x="288.5" y="51.5" as="targetPoint" />
          </mxGeometry>
        </mxCell>
        <mxCell id="1503" value="" style="edgeStyle=none;endArrow=none;strokeWidth=3;strokeColor=#F08E81;html=1;" parent="1" source="1356" target="1490" edge="1">
          <mxGeometry x="188.5" y="51.5" width="100" height="100" as="geometry">
            <mxPoint x="188.5" y="151.5" as="sourcePoint" />
            <mxPoint x="288.5" y="51.5" as="targetPoint" />
          </mxGeometry>
        </mxCell>
        <mxCell id="1504" value="" style="edgeStyle=none;endArrow=none;strokeWidth=3;strokeColor=#F08E81;html=1;" parent="1" source="1356" target="1491" edge="1">
          <mxGeometry x="188.5" y="51.5" width="100" height="100" as="geometry">
            <mxPoint x="188.5" y="151.5" as="sourcePoint" />
            <mxPoint x="288.5" y="51.5" as="targetPoint" />
          </mxGeometry>
        </mxCell>
        <mxCell id="1505" value="" style="edgeStyle=none;endArrow=none;strokeWidth=3;strokeColor=#F08E81;html=1;" parent="1" source="1356" target="1492" edge="1">
          <mxGeometry x="188.5" y="51.5" width="100" height="100" as="geometry">
            <mxPoint x="188.5" y="151.5" as="sourcePoint" />
            <mxPoint x="288.5" y="51.5" as="targetPoint" />
          </mxGeometry>
        </mxCell>
        <mxCell id="1506" value="" style="edgeStyle=none;endArrow=none;strokeWidth=3;strokeColor=#F08E81;html=1;" parent="1" source="1356" target="1493" edge="1">
          <mxGeometry x="188.5" y="51.5" width="100" height="100" as="geometry">
            <mxPoint x="188.5" y="151.5" as="sourcePoint" />
            <mxPoint x="288.5" y="51.5" as="targetPoint" />
          </mxGeometry>
        </mxCell>
        <mxCell id="1507" value="" style="edgeStyle=none;endArrow=none;strokeWidth=3;strokeColor=#F08E81;html=1;" parent="1" source="1356" target="1494" edge="1">
          <mxGeometry x="188.5" y="51.5" width="100" height="100" as="geometry">
            <mxPoint x="188.5" y="151.5" as="sourcePoint" />
            <mxPoint x="288.5" y="51.5" as="targetPoint" />
          </mxGeometry>
        </mxCell>
        <mxCell id="1508" value="" style="edgeStyle=none;endArrow=none;strokeWidth=3;strokeColor=#F08E81;html=1;" parent="1" source="1356" target="1495" edge="1">
          <mxGeometry x="188.5" y="51.5" width="100" height="100" as="geometry">
            <mxPoint x="188.5" y="151.5" as="sourcePoint" />
            <mxPoint x="288.5" y="51.5" as="targetPoint" />
          </mxGeometry>
        </mxCell>
        <mxCell id="1509" value="" style="edgeStyle=none;endArrow=none;strokeWidth=3;strokeColor=#F08E81;html=1;" parent="1" source="1356" target="1496" edge="1">
          <mxGeometry x="188.5" y="51.5" width="100" height="100" as="geometry">
            <mxPoint x="188.5" y="151.5" as="sourcePoint" />
            <mxPoint x="288.5" y="51.5" as="targetPoint" />
          </mxGeometry>
        </mxCell>
        <mxCell id="1510" value="" style="edgeStyle=none;endArrow=none;strokeWidth=3;strokeColor=#F08E81;html=1;" parent="1" source="1356" target="1497" edge="1">
          <mxGeometry x="188.5" y="51.5" width="100" height="100" as="geometry">
            <mxPoint x="188.5" y="151.5" as="sourcePoint" />
            <mxPoint x="288.5" y="51.5" as="targetPoint" />
          </mxGeometry>
        </mxCell>
        <mxCell id="1511" value="" style="edgeStyle=none;endArrow=none;strokeWidth=3;strokeColor=#F08E81;html=1;" parent="1" source="1356" target="1498" edge="1">
          <mxGeometry x="188.5" y="51.5" width="100" height="100" as="geometry">
            <mxPoint x="188.5" y="151.5" as="sourcePoint" />
            <mxPoint x="288.5" y="51.5" as="targetPoint" />
          </mxGeometry>
        </mxCell>
        <mxCell id="1512" value="" style="edgeStyle=none;endArrow=none;strokeWidth=3;strokeColor=#F08E81;html=1;" parent="1" source="1356" target="1499" edge="1">
          <mxGeometry x="188.5" y="51.5" width="100" height="100" as="geometry">
            <mxPoint x="188.5" y="151.5" as="sourcePoint" />
            <mxPoint x="288.5" y="51.5" as="targetPoint" />
          </mxGeometry>
        </mxCell>
        <mxCell id="1513" value="" style="edgeStyle=none;endArrow=none;strokeWidth=3;strokeColor=#F08E81;html=1;" parent="1" source="1356" target="1500" edge="1">
          <mxGeometry x="188.5" y="51.5" width="100" height="100" as="geometry">
            <mxPoint x="188.5" y="151.5" as="sourcePoint" />
            <mxPoint x="288.5" y="51.5" as="targetPoint" />
          </mxGeometry>
        </mxCell>
        <mxCell id="1514" style="edgeStyle=orthogonalEdgeStyle;rounded=0;html=1;exitX=0.75;exitY=0;entryX=0.75;entryY=0;startArrow=none;startFill=0;endArrow=block;endFill=1;jettySize=auto;orthogonalLoop=1;strokeColor=#12aab5;strokeWidth=6;fontSize=20;fontColor=#2F5B7C;" parent="1" edge="1">
          <mxGeometry relative="1" as="geometry">
            <mxPoint x="1611" y="371.5" as="sourcePoint" />
            <mxPoint x="1611" y="371.5" as="targetPoint" />
          </mxGeometry>
        </mxCell>
        <mxCell id="1515" value="DashBoard" style="ellipse;whiteSpace=wrap;html=1;shadow=0;fontFamily=Helvetica;fontSize=30;fontColor=#2F5B7C;align=center;strokeColor=#2F5B7C;strokeWidth=6;fillColor=#FFFFFF;fontStyle=1;gradientColor=none;" parent="1" vertex="1">
          <mxGeometry x="961" y="676.5" width="270" height="270" as="geometry" />
        </mxCell>
        <mxCell id="1NOU-ukhlj_V_QHXFucC-1635" style="edgeStyle=none;shape=connector;rounded=1;orthogonalLoop=1;jettySize=auto;html=1;strokeColor=#A29DC5;strokeWidth=3;align=center;verticalAlign=middle;fontFamily=Helvetica;fontSize=11;fontColor=default;labelBackgroundColor=default;endArrow=none;" edge="1" parent="1" source="1516" target="1NOU-ukhlj_V_QHXFucC-1633">
          <mxGeometry relative="1" as="geometry">
            <mxPoint x="400" y="550" as="targetPoint" />
          </mxGeometry>
        </mxCell>
        <mxCell id="1516" value="User" style="ellipse;whiteSpace=wrap;html=1;shadow=0;fontFamily=Helvetica;fontSize=20;fontColor=#FFFFFF;align=center;strokeWidth=3;fillColor=#736ca8;strokeColor=none;" parent="1" vertex="1">
          <mxGeometry x="319.5" y="660" width="178" height="162.25" as="geometry" />
        </mxCell>
        <mxCell id="1541" value="" style="edgeStyle=none;endArrow=none;strokeWidth=3;strokeColor=#A29DC5;html=1;" parent="1" source="1354" target="1459" edge="1">
          <mxGeometry x="-1174" y="-408.5" width="100" height="100" as="geometry">
            <mxPoint x="-1174" y="-308.5" as="sourcePoint" />
            <mxPoint x="-1074" y="-408.5" as="targetPoint" />
          </mxGeometry>
        </mxCell>
        <mxCell id="1542" style="edgeStyle=none;rounded=0;html=1;exitX=0.5;exitY=1;endArrow=none;endFill=0;jettySize=auto;orthogonalLoop=1;strokeColor=#736CA8;strokeWidth=2;fillColor=#64bbe2;fontSize=20;fontColor=#23445D;" parent="1" edge="1">
          <mxGeometry relative="1" as="geometry">
            <mxPoint x="137" y="771.5" as="sourcePoint" />
            <mxPoint x="137" y="771.5" as="targetPoint" />
          </mxGeometry>
        </mxCell>
        <mxCell id="1NOU-ukhlj_V_QHXFucC-1558" value="" style="edgeStyle=none;shape=connector;rounded=1;orthogonalLoop=1;jettySize=auto;html=1;strokeColor=#A29DC5;strokeWidth=3;align=center;verticalAlign=middle;fontFamily=Helvetica;fontSize=11;fontColor=default;labelBackgroundColor=default;endArrow=none;" edge="1" parent="1" source="1NOU-ukhlj_V_QHXFucC-1542" target="1NOU-ukhlj_V_QHXFucC-1557">
          <mxGeometry relative="1" as="geometry" />
        </mxCell>
        <mxCell id="1NOU-ukhlj_V_QHXFucC-1560" value="" style="edgeStyle=none;shape=connector;rounded=1;orthogonalLoop=1;jettySize=auto;html=1;strokeColor=#A29DC5;strokeWidth=3;align=center;verticalAlign=middle;fontFamily=Helvetica;fontSize=11;fontColor=default;labelBackgroundColor=default;endArrow=none;" edge="1" parent="1" source="1NOU-ukhlj_V_QHXFucC-1542" target="1NOU-ukhlj_V_QHXFucC-1559">
          <mxGeometry relative="1" as="geometry" />
        </mxCell>
        <mxCell id="1NOU-ukhlj_V_QHXFucC-1562" value="" style="edgeStyle=none;shape=connector;rounded=1;orthogonalLoop=1;jettySize=auto;html=1;strokeColor=#A29DC5;strokeWidth=3;align=center;verticalAlign=middle;fontFamily=Helvetica;fontSize=11;fontColor=default;labelBackgroundColor=default;endArrow=none;" edge="1" parent="1" source="1NOU-ukhlj_V_QHXFucC-1542" target="1NOU-ukhlj_V_QHXFucC-1561">
          <mxGeometry relative="1" as="geometry" />
        </mxCell>
        <mxCell id="1NOU-ukhlj_V_QHXFucC-1542" value="Templates" style="ellipse;whiteSpace=wrap;html=1;shadow=0;fontFamily=Helvetica;fontSize=20;fontColor=#FFFFFF;align=center;strokeWidth=3;fillColor=#736ca8;strokeColor=none;" vertex="1" parent="1">
          <mxGeometry x="166" y="851.5" width="120" height="120" as="geometry" />
        </mxCell>
        <mxCell id="1NOU-ukhlj_V_QHXFucC-1546" value="" style="endArrow=none;html=1;rounded=1;strokeColor=#A29DC5;strokeWidth=3;align=center;verticalAlign=middle;fontFamily=Helvetica;fontSize=11;fontColor=default;labelBackgroundColor=default;exitX=0.9;exitY=0.246;exitDx=0;exitDy=0;exitPerimeter=0;" edge="1" parent="1" source="1NOU-ukhlj_V_QHXFucC-1542" target="1516">
          <mxGeometry width="50" height="50" relative="1" as="geometry">
            <mxPoint x="230" y="877" as="sourcePoint" />
            <mxPoint x="280" y="827" as="targetPoint" />
          </mxGeometry>
        </mxCell>
        <mxCell id="1NOU-ukhlj_V_QHXFucC-1564" value="" style="edgeStyle=none;shape=connector;rounded=1;orthogonalLoop=1;jettySize=auto;html=1;strokeColor=#A29DC5;strokeWidth=3;align=center;verticalAlign=middle;fontFamily=Helvetica;fontSize=11;fontColor=default;labelBackgroundColor=default;endArrow=none;" edge="1" parent="1" source="1NOU-ukhlj_V_QHXFucC-1547" target="1NOU-ukhlj_V_QHXFucC-1563">
          <mxGeometry relative="1" as="geometry" />
        </mxCell>
        <mxCell id="1NOU-ukhlj_V_QHXFucC-1547" value="Perfil" style="ellipse;whiteSpace=wrap;html=1;shadow=0;fontFamily=Helvetica;fontSize=20;fontColor=#FFFFFF;align=center;strokeWidth=3;fillColor=#736ca8;strokeColor=none;" vertex="1" parent="1">
          <mxGeometry x="100" y="655.75" width="146" height="121.5" as="geometry" />
        </mxCell>
        <mxCell id="1NOU-ukhlj_V_QHXFucC-1549" value="" style="endArrow=none;html=1;rounded=1;strokeColor=#A29DC5;strokeWidth=3;align=center;verticalAlign=middle;fontFamily=Helvetica;fontSize=11;fontColor=default;labelBackgroundColor=default;" edge="1" parent="1" source="1NOU-ukhlj_V_QHXFucC-1547" target="1516">
          <mxGeometry width="50" height="50" relative="1" as="geometry">
            <mxPoint x="220" y="785.75" as="sourcePoint" />
            <mxPoint x="270" y="735.75" as="targetPoint" />
          </mxGeometry>
        </mxCell>
        <mxCell id="1NOU-ukhlj_V_QHXFucC-1557" value="Edit Template" style="rounded=1;whiteSpace=wrap;html=1;fontSize=20;fillColor=#736ca8;strokeColor=none;fontColor=#FFFFFF;shadow=0;strokeWidth=3;" vertex="1" parent="1">
          <mxGeometry x="-90" y="936.5" width="120" height="60" as="geometry" />
        </mxCell>
        <mxCell id="1NOU-ukhlj_V_QHXFucC-1559" value="Add Template" style="rounded=1;whiteSpace=wrap;html=1;fontSize=20;fillColor=#736ca8;strokeColor=none;fontColor=#FFFFFF;shadow=0;strokeWidth=3;" vertex="1" parent="1">
          <mxGeometry x="40" y="1040" width="120" height="60" as="geometry" />
        </mxCell>
        <mxCell id="1NOU-ukhlj_V_QHXFucC-1561" value="Delete Template" style="rounded=1;whiteSpace=wrap;html=1;fontSize=20;fillColor=#736ca8;strokeColor=none;fontColor=#FFFFFF;shadow=0;strokeWidth=3;" vertex="1" parent="1">
          <mxGeometry x="10" y="791.5" width="120" height="60" as="geometry" />
        </mxCell>
        <mxCell id="1NOU-ukhlj_V_QHXFucC-1563" value="Edit Info" style="rounded=1;whiteSpace=wrap;html=1;fontSize=20;fillColor=#736ca8;strokeColor=none;fontColor=#FFFFFF;shadow=0;strokeWidth=3;" vertex="1" parent="1">
          <mxGeometry x="-140" y="646.5" width="120" height="60" as="geometry" />
        </mxCell>
        <mxCell id="1NOU-ukhlj_V_QHXFucC-1583" style="edgeStyle=none;shape=connector;rounded=1;orthogonalLoop=1;jettySize=auto;html=1;exitX=0;exitY=0;exitDx=0;exitDy=0;entryX=0.75;entryY=1;entryDx=0;entryDy=0;strokeColor=#1699D3;strokeWidth=6;align=center;verticalAlign=middle;fontFamily=Helvetica;fontSize=11;fontColor=default;labelBackgroundColor=default;endArrow=none;" edge="1" parent="1" source="1NOU-ukhlj_V_QHXFucC-1569" target="1NOU-ukhlj_V_QHXFucC-1581">
          <mxGeometry relative="1" as="geometry" />
        </mxCell>
        <mxCell id="1NOU-ukhlj_V_QHXFucC-1569" value="Original Template" style="ellipse;whiteSpace=wrap;html=1;shadow=0;fontFamily=Helvetica;fontSize=20;fontColor=#FFFFFF;align=center;strokeWidth=3;fillColor=#1699D3;strokeColor=none;" vertex="1" parent="1">
          <mxGeometry x="341" y="90" width="120" height="120" as="geometry" />
        </mxCell>
        <mxCell id="1NOU-ukhlj_V_QHXFucC-1582" style="edgeStyle=none;shape=connector;rounded=1;orthogonalLoop=1;jettySize=auto;html=1;exitX=0;exitY=0;exitDx=0;exitDy=0;entryX=0.5;entryY=1;entryDx=0;entryDy=0;strokeColor=#1699D3;strokeWidth=6;align=center;verticalAlign=middle;fontFamily=Helvetica;fontSize=11;fontColor=default;labelBackgroundColor=default;endArrow=none;" edge="1" parent="1" source="1NOU-ukhlj_V_QHXFucC-1571" target="1NOU-ukhlj_V_QHXFucC-1581">
          <mxGeometry relative="1" as="geometry" />
        </mxCell>
        <mxCell id="1NOU-ukhlj_V_QHXFucC-1571" value="Custom Templates..." style="ellipse;whiteSpace=wrap;html=1;shadow=0;fontFamily=Helvetica;fontSize=20;fontColor=#FFFFFF;align=center;strokeWidth=3;fillColor=#1699D3;strokeColor=none;" vertex="1" parent="1">
          <mxGeometry x="323.5" y="271.5" width="120" height="120" as="geometry" />
        </mxCell>
        <mxCell id="1NOU-ukhlj_V_QHXFucC-1581" value="Service Actions" style="swimlane;horizontal=0;whiteSpace=wrap;html=1;fontFamily=Helvetica;fontSize=11;fontColor=default;labelBackgroundColor=default;strokeColor=#1699D3;strokeWidth=3;" vertex="1" parent="1">
          <mxGeometry x="20" y="-197.75" width="390" height="270" as="geometry" />
        </mxCell>
        <mxCell id="1NOU-ukhlj_V_QHXFucC-1577" value="Delete ServiÃ§o" style="rounded=1;whiteSpace=wrap;html=1;fontSize=20;fillColor=#1699D3;strokeColor=none;fontColor=#FFFFFF;shadow=0;strokeWidth=3;" vertex="1" parent="1NOU-ukhlj_V_QHXFucC-1581">
          <mxGeometry x="191" y="40" width="120" height="60" as="geometry" />
        </mxCell>
        <mxCell id="1NOU-ukhlj_V_QHXFucC-1575" value="Edit ServiÃ§o" style="rounded=1;whiteSpace=wrap;html=1;fontSize=20;fillColor=#1699D3;strokeColor=none;fontColor=#FFFFFF;shadow=0;strokeWidth=3;" vertex="1" parent="1NOU-ukhlj_V_QHXFucC-1581">
          <mxGeometry x="43" y="40" width="120" height="60" as="geometry" />
        </mxCell>
        <mxCell id="1NOU-ukhlj_V_QHXFucC-1626" value="Add ServiÃ§o" style="rounded=1;whiteSpace=wrap;html=1;fontSize=20;fillColor=#1699D3;strokeColor=none;fontColor=#FFFFFF;shadow=0;strokeWidth=3;" vertex="1" parent="1NOU-ukhlj_V_QHXFucC-1581">
          <mxGeometry x="43" y="180" width="120" height="60" as="geometry" />
        </mxCell>
        <mxCell id="1NOU-ukhlj_V_QHXFucC-1585" value="ServiÃ§os" style="rounded=1;whiteSpace=wrap;html=1;fontSize=20;fillColor=#F08705;strokeColor=none;fontColor=#FFFFFF;shadow=0;strokeWidth=3;gradientColor=none;" vertex="1" parent="1">
          <mxGeometry x="843.5" y="261.5" width="120" height="60" as="geometry" />
        </mxCell>
        <mxCell id="1NOU-ukhlj_V_QHXFucC-1588" value="TransaÃ§Ãµes" style="rounded=1;whiteSpace=wrap;html=1;fontSize=20;fillColor=#F08705;strokeColor=none;fontColor=#FFFFFF;shadow=0;strokeWidth=3;gradientColor=none;" vertex="1" parent="1">
          <mxGeometry x="870" y="150" width="120" height="60" as="geometry" />
        </mxCell>
        <mxCell id="1NOU-ukhlj_V_QHXFucC-1593" value="" style="edgeStyle=none;shape=connector;rounded=1;orthogonalLoop=1;jettySize=auto;html=1;strokeColor=#f08705;strokeWidth=6;align=center;verticalAlign=middle;fontFamily=Helvetica;fontSize=11;fontColor=default;labelBackgroundColor=default;endArrow=none;" edge="1" parent="1" source="1NOU-ukhlj_V_QHXFucC-1590" target="1NOU-ukhlj_V_QHXFucC-1592">
          <mxGeometry relative="1" as="geometry" />
        </mxCell>
        <mxCell id="1NOU-ukhlj_V_QHXFucC-1595" value="" style="edgeStyle=none;shape=connector;rounded=1;orthogonalLoop=1;jettySize=auto;html=1;strokeColor=#f08705;strokeWidth=6;align=center;verticalAlign=middle;fontFamily=Helvetica;fontSize=11;fontColor=default;labelBackgroundColor=default;endArrow=none;" edge="1" parent="1" source="1NOU-ukhlj_V_QHXFucC-1590" target="1NOU-ukhlj_V_QHXFucC-1594">
          <mxGeometry relative="1" as="geometry" />
        </mxCell>
        <mxCell id="1NOU-ukhlj_V_QHXFucC-1598" value="" style="edgeStyle=none;shape=connector;rounded=1;orthogonalLoop=1;jettySize=auto;html=1;strokeColor=#f08705;strokeWidth=6;align=center;verticalAlign=middle;fontFamily=Helvetica;fontSize=11;fontColor=default;labelBackgroundColor=default;endArrow=none;" edge="1" parent="1" source="1NOU-ukhlj_V_QHXFucC-1590" target="1NOU-ukhlj_V_QHXFucC-1597">
          <mxGeometry relative="1" as="geometry" />
        </mxCell>
        <mxCell id="1NOU-ukhlj_V_QHXFucC-1590" value="User" style="ellipse;whiteSpace=wrap;html=1;shadow=0;fontFamily=Helvetica;fontSize=20;fontColor=#FFFFFF;align=center;strokeWidth=3;fillColor=#F08705;strokeColor=none;gradientColor=none;" vertex="1" parent="1">
          <mxGeometry x="1103.5" y="41.5" width="120" height="120" as="geometry" />
        </mxCell>
        <mxCell id="1NOU-ukhlj_V_QHXFucC-1592" value="Add Event" style="rounded=1;whiteSpace=wrap;html=1;fontSize=20;fillColor=#F08705;strokeColor=none;fontColor=#FFFFFF;shadow=0;strokeWidth=3;gradientColor=none;" vertex="1" parent="1">
          <mxGeometry x="1103.5" y="-100" width="120" height="60" as="geometry" />
        </mxCell>
        <mxCell id="1NOU-ukhlj_V_QHXFucC-1594" value="Delete Event" style="rounded=1;whiteSpace=wrap;html=1;fontSize=20;fillColor=#F08705;strokeColor=none;fontColor=#FFFFFF;shadow=0;strokeWidth=3;gradientColor=none;" vertex="1" parent="1">
          <mxGeometry x="1260" y="-40" width="120" height="60" as="geometry" />
        </mxCell>
        <mxCell id="1NOU-ukhlj_V_QHXFucC-1597" value="Edit Event" style="rounded=1;whiteSpace=wrap;html=1;fontSize=20;fillColor=#F08705;strokeColor=none;fontColor=#FFFFFF;shadow=0;strokeWidth=3;gradientColor=none;" vertex="1" parent="1">
          <mxGeometry x="920" y="-60" width="120" height="60" as="geometry" />
        </mxCell>
        <mxCell id="1NOU-ukhlj_V_QHXFucC-1599" value="Clientes" style="rounded=1;whiteSpace=wrap;html=1;fontSize=20;fillColor=#F08705;strokeColor=none;fontColor=#FFFFFF;shadow=0;strokeWidth=3;gradientColor=none;" vertex="1" parent="1">
          <mxGeometry x="1340" y="120" width="120" height="60" as="geometry" />
        </mxCell>
        <mxCell id="1NOU-ukhlj_V_QHXFucC-1630" style="edgeStyle=none;shape=connector;rounded=1;orthogonalLoop=1;jettySize=auto;html=1;strokeColor=#E85642;strokeWidth=6;align=center;verticalAlign=middle;fontFamily=Helvetica;fontSize=11;fontColor=default;labelBackgroundColor=default;endArrow=none;entryX=0.25;entryY=1;entryDx=0;entryDy=0;" edge="1" parent="1" source="1NOU-ukhlj_V_QHXFucC-1602" target="1NOU-ukhlj_V_QHXFucC-1613">
          <mxGeometry relative="1" as="geometry">
            <mxPoint x="1800" y="120" as="targetPoint" />
          </mxGeometry>
        </mxCell>
        <mxCell id="1NOU-ukhlj_V_QHXFucC-1602" value="ClientesPJ" style="ellipse;whiteSpace=wrap;html=1;shadow=0;fontFamily=Helvetica;fontSize=20;fontColor=#FFFFFF;align=center;strokeWidth=3;fillColor=#E85642;strokeColor=none;" vertex="1" parent="1">
          <mxGeometry x="1570" y="150" width="170" height="150" as="geometry" />
        </mxCell>
        <mxCell id="1NOU-ukhlj_V_QHXFucC-1606" style="edgeStyle=none;shape=connector;rounded=1;orthogonalLoop=1;jettySize=auto;html=1;exitX=0.5;exitY=1;exitDx=0;exitDy=0;strokeColor=#1699D3;strokeWidth=6;align=center;verticalAlign=middle;fontFamily=Helvetica;fontSize=11;fontColor=default;labelBackgroundColor=default;endArrow=none;" edge="1" parent="1" source="1NOU-ukhlj_V_QHXFucC-1604" target="1350">
          <mxGeometry relative="1" as="geometry" />
        </mxCell>
        <mxCell id="1NOU-ukhlj_V_QHXFucC-1604" value="All" style="rounded=1;whiteSpace=wrap;html=1;fontSize=20;fillColor=#1699D3;strokeColor=none;fontColor=#FFFFFF;shadow=0;strokeWidth=3;" vertex="1" parent="1">
          <mxGeometry x="561.75" y="72.25" width="120" height="60" as="geometry" />
        </mxCell>
        <mxCell id="1NOU-ukhlj_V_QHXFucC-1631" style="edgeStyle=none;shape=connector;rounded=1;orthogonalLoop=1;jettySize=auto;html=1;exitX=0.5;exitY=0;exitDx=0;exitDy=0;strokeColor=#E85642;strokeWidth=6;align=center;verticalAlign=middle;fontFamily=Helvetica;fontSize=11;fontColor=default;labelBackgroundColor=default;endArrow=none;entryX=0.5;entryY=1;entryDx=0;entryDy=0;" edge="1" parent="1" source="1NOU-ukhlj_V_QHXFucC-1610" target="1NOU-ukhlj_V_QHXFucC-1613">
          <mxGeometry relative="1" as="geometry">
            <mxPoint x="1891.2352941176473" y="119.99999999999977" as="targetPoint" />
          </mxGeometry>
        </mxCell>
        <mxCell id="1NOU-ukhlj_V_QHXFucC-1610" value="ClientePF" style="ellipse;whiteSpace=wrap;html=1;shadow=0;fontFamily=Helvetica;fontSize=20;fontColor=#FFFFFF;align=center;strokeWidth=3;fillColor=#E85642;strokeColor=none;" vertex="1" parent="1">
          <mxGeometry x="1801" y="300" width="179.5" height="161.5" as="geometry" />
        </mxCell>
        <object label="Clients Actions" id="1NOU-ukhlj_V_QHXFucC-1613">
          <mxCell style="swimlane;whiteSpace=wrap;html=1;fontFamily=Helvetica;fontSize=11;fontColor=default;labelBackgroundColor=default;arcSize=15;noLabel=0;perimeter=rectanglePerimeter;" vertex="1" parent="1">
            <mxGeometry x="1725" y="-150" width="341" height="260" as="geometry" />
          </mxCell>
        </object>
        <mxCell id="1NOU-ukhlj_V_QHXFucC-1619" value="Add Client" style="rounded=1;whiteSpace=wrap;html=1;fontSize=20;fillColor=#E85642;strokeColor=none;fontColor=#FFFFFF;shadow=0;strokeWidth=3;" vertex="1" parent="1NOU-ukhlj_V_QHXFucC-1613">
          <mxGeometry x="21" y="40" width="120" height="50" as="geometry" />
        </mxCell>
        <mxCell id="1NOU-ukhlj_V_QHXFucC-1622" value="Edit Client" style="rounded=1;whiteSpace=wrap;html=1;fontSize=20;fillColor=#E85642;strokeColor=none;fontColor=#FFFFFF;shadow=0;strokeWidth=3;" vertex="1" parent="1NOU-ukhlj_V_QHXFucC-1613">
          <mxGeometry x="21" y="170" width="120" height="50" as="geometry" />
        </mxCell>
        <mxCell id="1NOU-ukhlj_V_QHXFucC-1628" value="Delete Client" style="rounded=1;whiteSpace=wrap;html=1;fontSize=20;fillColor=#E85642;strokeColor=none;fontColor=#FFFFFF;shadow=0;strokeWidth=3;" vertex="1" parent="1NOU-ukhlj_V_QHXFucC-1613">
          <mxGeometry x="189" y="90" width="120" height="50" as="geometry" />
        </mxCell>
        <mxCell id="1NOU-ukhlj_V_QHXFucC-1633" value="Conta Bancaria" style="rounded=1;whiteSpace=wrap;html=1;fontSize=20;fillColor=#736ca8;strokeColor=none;fontColor=#FFFFFF;shadow=0;strokeWidth=3;" vertex="1" parent="1">
          <mxGeometry x="341" y="489.25" width="120" height="60" as="geometry" />
        </mxCell>
      </root>
    </mxGraphModel>
  </diagram>
</mxfile>
